<svg xmlns="http://www.w3.org/2000/svg" width="512" height="512" viewBox="0 0 512 512" role="img" aria-label="WorldGate Elite 3 badge"><defs><radialGradient id="bg"><stop offset="0%" stop-color="#0891B2"/><stop offset="55%" stop-color="#164E63"/><stop offset="100%" stop-color="#050713"/></radialGradient><radialGradient id="portal"><stop offset="0%" stop-color="#fff" stop-opacity=".98"/><stop offset="22%" stop-color="#67E8F9" stop-opacity=".95"/><stop offset="62%" stop-color="#22D3EE" stop-opacity=".5"/><stop offset="100%" stop-color="#0891B2" stop-opacity="0"/></radialGradient><filter id="glow"><feGaussianBlur stdDeviation="8" result="b"/><feMerge><feMergeNode in="b"/><feMergeNode in="SourceGraphic"/></feMerge></filter><linearGradient id="front"><stop stop-color="#fff"/><stop offset=".24" stop-color="#67E8F9"/><stop offset=".55" stop-color="#0891B2"/><stop offset="1" stop-color="#111827"/></linearGradient></defs><rect width="512" height="512" rx="96" fill="url(#bg)"/><g filter="url(#glow)" opacity="0.52"><ellipse cx="256" cy="245" rx="134" ry="113" fill="url(#portal)"/><ellipse cx="256" cy="256" rx="184" ry="112" fill="none" stroke="#22D3EE" stroke-width="2" opacity="0.18" transform="rotate(33 256 256)"/></g><g><circle cx="101" cy="149" r="1" fill="#67E8F9" opacity="0.18"/><circle cx="168" cy="232" r="2" fill="#67E8F9" opacity="0.30"/><circle cx="235" cy="315" r="3" fill="#67E8F9" opacity="0.42"/><circle cx="302" cy="398" r="1" fill="#67E8F9" opacity="0.54"/><circle cx="369" cy="101" r="2" fill="#67E8F9" opacity="0.66"/><circle cx="436" cy="184" r="3" fill="#67E8F9" opacity="0.18"/><circle cx="53" cy="267" r="1" fill="#67E8F9" opacity="0.30"/><circle cx="120" cy="350" r="2" fill="#67E8F9" opacity="0.42"/><circle cx="187" cy="53" r="3" fill="#67E8F9" opacity="0.54"/><circle cx="254" cy="136" r="1" fill="#67E8F9" opacity="0.66"/><circle cx="321" cy="219" r="2" fill="#67E8F9" opacity="0.18"/><circle cx="388" cy="302" r="3" fill="#67E8F9" opacity="0.30"/><circle cx="455" cy="385" r="1" fill="#67E8F9" opacity="0.42"/><circle cx="72" cy="88" r="2" fill="#67E8F9" opacity="0.54"/><circle cx="139" cy="171" r="3" fill="#67E8F9" opacity="0.66"/><circle cx="206" cy="254" r="1" fill="#67E8F9" opacity="0.18"/><circle cx="273" cy="337" r="2" fill="#67E8F9" opacity="0.30"/><circle cx="340" cy="420" r="3" fill="#67E8F9" opacity="0.42"/><circle cx="407" cy="123" r="1" fill="#67E8F9" opacity="0.54"/><circle cx="474" cy="206" r="2" fill="#67E8F9" opacity="0.66"/><circle cx="91" cy="289" r="3" fill="#67E8F9" opacity="0.18"/><circle cx="158" cy="372" r="1" fill="#67E8F9" opacity="0.30"/><circle cx="225" cy="75" r="2" fill="#67E8F9" opacity="0.42"/><circle cx="292" cy="158" r="3" fill="#67E8F9" opacity="0.54"/></g><path d="M70 432 L118 350 L177 377 L210 343 L270 372 L306 334 L365 367 L442 432 Z" fill="#080B18" stroke="#22D3EE" stroke-opacity=".35" stroke-width="3"/><path d="M92 443 L128 378 L174 395 L214 365 L263 395 L306 358 L350 392 L415 443 Z" fill="#164E63" opacity=".48"/><g><polygon points="368.0190296068711,387.33198113934077 375.0190296068711,394.33198113934077 368.0190296068711,401.33198113934077 361.0190296068711,394.33198113934077" fill="#67E8F9" opacity="0.45"/><polygon points="106.01082943880465,368.4588354726187 115.01082943880465,377.4588354726187 106.01082943880465,386.4588354726187 97.01082943880465,377.4588354726187" fill="#67E8F9" opacity="0.57"/><polygon points="125.10135866163387,83.35364001695001 136.10135866163387,94.35364001695001 125.10135866163387,105.35364001695001 114.10135866163387,94.35364001695001" fill="#67E8F9" opacity="0.69"/><polygon points="394.33198113934077,130.98097039312887 407.33198113934077,143.98097039312887 394.33198113934077,156.98097039312887 381.33198113934077,143.98097039312887" fill="#67E8F9" opacity="0.81"/></g><g><path d="M256 118 L335 164 L364 256 L335 348 L256 394 L177 348 L148 256 L177 164 Z" fill="#050713" fill-opacity=".86" stroke="url(#front)" stroke-width="8"/><path d="M256 137 L318 174 L341 256 L318 338 L256 375 L194 338 L171 256 L194 174 Z" fill="#0B1020" stroke="#67E8F9" stroke-opacity=".75" stroke-width="3"/><text x="256" y="222" text-anchor="middle" font-family="sans-serif" font-size="30" font-weight="900" letter-spacing="6" fill="#fff">ELITE</text><text x="256" y="307" text-anchor="middle" font-family="sans-serif" font-size="86" font-weight="900" fill="#fff" stroke="#0891B2" stroke-width="2" paint-order="stroke">3</text><path d="M222 337 L256 319 L290 337" fill="none" stroke="#67E8F9" stroke-width="5" stroke-linecap="round"/></g></svg>