<svg xmlns="http://www.w3.org/2000/svg" width="512" height="512" viewBox="0 0 512 512" role="img" aria-label="WorldGate Elite 4 badge"><defs><radialGradient id="bg"><stop offset="0%" stop-color="#059669"/><stop offset="55%" stop-color="#064E3B"/><stop offset="100%" stop-color="#050713"/></radialGradient><radialGradient id="portal"><stop offset="0%" stop-color="#fff" stop-opacity=".98"/><stop offset="22%" stop-color="#6EE7B7" stop-opacity=".95"/><stop offset="62%" stop-color="#34D399" stop-opacity=".5"/><stop offset="100%" stop-color="#059669" stop-opacity="0"/></radialGradient><filter id="glow"><feGaussianBlur stdDeviation="8" result="b"/><feMerge><feMergeNode in="b"/><feMergeNode in="SourceGraphic"/></feMerge></filter><linearGradient id="front"><stop stop-color="#fff"/><stop offset=".24" stop-color="#6EE7B7"/><stop offset=".55" stop-color="#059669"/><stop offset="1" stop-color="#111827"/></linearGradient></defs><rect width="512" height="512" rx="96" fill="url(#bg)"/><g filter="url(#glow)" opacity="0.56"><ellipse cx="256" cy="245" rx="142" ry="118" fill="url(#portal)"/><ellipse cx="256" cy="256" rx="184" ry="112" fill="none" stroke="#34D399" stroke-width="2" opacity="0.18" transform="rotate(44 256 256)"/><ellipse cx="256" cy="256" rx="200" ry="123" fill="none" stroke="#34D399" stroke-width="3" opacity="0.25" transform="rotate(65 256 256)"/></g><g><circle cx="114" cy="168" r="1" fill="#6EE7B7" opacity="0.18"/><circle cx="181" cy="251" r="2" fill="#6EE7B7" opacity="0.30"/><circle cx="248" cy="334" r="3" fill="#6EE7B7" opacity="0.42"/><circle cx="315" cy="417" r="1" fill="#6EE7B7" opacity="0.54"/><circle cx="382" cy="120" r="2" fill="#6EE7B7" opacity="0.66"/><circle cx="449" cy="203" r="3" fill="#6EE7B7" opacity="0.18"/><circle cx="66" cy="286" r="1" fill="#6EE7B7" opacity="0.30"/><circle cx="133" cy="369" r="2" fill="#6EE7B7" opacity="0.42"/><circle cx="200" cy="72" r="3" fill="#6EE7B7" opacity="0.54"/><circle cx="267" cy="155" r="1" fill="#6EE7B7" opacity="0.66"/><circle cx="334" cy="238" r="2" fill="#6EE7B7" opacity="0.18"/><circle cx="401" cy="321" r="3" fill="#6EE7B7" opacity="0.30"/><circle cx="468" cy="404" r="1" fill="#6EE7B7" opacity="0.42"/><circle cx="85" cy="107" r="2" fill="#6EE7B7" opacity="0.54"/><circle cx="152" cy="190" r="3" fill="#6EE7B7" opacity="0.66"/><circle cx="219" cy="273" r="1" fill="#6EE7B7" opacity="0.18"/><circle cx="286" cy="356" r="2" fill="#6EE7B7" opacity="0.30"/><circle cx="353" cy="59" r="3" fill="#6EE7B7" opacity="0.42"/><circle cx="420" cy="142" r="1" fill="#6EE7B7" opacity="0.54"/><circle cx="37" cy="225" r="2" fill="#6EE7B7" opacity="0.66"/><circle cx="104" cy="308" r="3" fill="#6EE7B7" opacity="0.18"/><circle cx="171" cy="391" r="1" fill="#6EE7B7" opacity="0.30"/><circle cx="238" cy="94" r="2" fill="#6EE7B7" opacity="0.42"/><circle cx="305" cy="177" r="3" fill="#6EE7B7" opacity="0.54"/><circle cx="372" cy="260" r="1" fill="#6EE7B7" opacity="0.66"/><circle cx="439" cy="343" r="2" fill="#6EE7B7" opacity="0.18"/></g><path d="M70 436 L118 350 L177 377 L210 343 L270 372 L306 334 L365 367 L442 436 Z" fill="#080B18" stroke="#34D399" stroke-opacity=".35" stroke-width="3"/><path d="M92 447 L128 378 L174 395 L214 365 L263 395 L306 358 L350 392 L415 447 Z" fill="#064E3B" opacity=".48"/><g><polygon points="322.6799736280323,414.0387261128882 329.6799736280323,421.0387261128882 322.6799736280323,428.0387261128882 315.6799736280323,421.0387261128882" fill="#6EE7B7" opacity="0.45"/><polygon points="108.15342247803727,371.0580086695021 117.15342247803727,380.0580086695021 108.15342247803727,389.0580086695021 99.15342247803727,380.0580086695021" fill="#6EE7B7" opacity="0.57"/><polygon points="79.60599599946337,134.77679303949338 90.60599599946337,145.77679303949338 79.60599599946337,156.77679303949338 68.60599599946337,145.77679303949338" fill="#6EE7B7" opacity="0.69"/><polygon points="299.0620974167408,70.28736072287262 312.0620974167408,83.28736072287262 299.0620974167408,96.28736072287262 286.0620974167408,83.28736072287262" fill="#6EE7B7" opacity="0.81"/><polygon points="448.52986170014606,235.53700056738393 455.52986170014606,242.53700056738393 448.52986170014606,249.53700056738393 441.52986170014606,242.53700056738393" fill="#6EE7B7" opacity="0.45"/></g><g><path d="M256 118 L335 164 L364 256 L335 348 L256 394 L177 348 L148 256 L177 164 Z" fill="#050713" fill-opacity=".86" stroke="url(#front)" stroke-width="8"/><path d="M256 137 L318 174 L341 256 L318 338 L256 375 L194 338 L171 256 L194 174 Z" fill="#0B1020" stroke="#6EE7B7" stroke-opacity=".75" stroke-width="3"/><text x="256" y="222" text-anchor="middle" font-family="sans-serif" font-size="30" font-weight="900" letter-spacing="6" fill="#fff">ELITE</text><text x="256" y="307" text-anchor="middle" font-family="sans-serif" font-size="86" font-weight="900" fill="#fff" stroke="#059669" stroke-width="2" paint-order="stroke">4</text><path d="M222 337 L256 319 L290 337" fill="none" stroke="#6EE7B7" stroke-width="5" stroke-linecap="round"/></g></svg>